<?xml version="1.0" standalone="no"?>
<!DOCTYPE svg PUBLIC "-//W3C//DTD SVG 20010904//EN"
 "http://www.w3.org/TR/2001/REC-SVG-20010904/DTD/svg10.dtd">
<svg version="1.0" xmlns="http://www.w3.org/2000/svg"
 width="150.000000pt" height="200.000000pt" viewBox="0 0 150.000000 200.000000"
 preserveAspectRatio="xMidYMid meet">

<g transform="translate(0.000000,200.000000) scale(0.100000,-0.100000)"
fill="#000000" stroke="none">
<path d="M516 1708 c-11 -35 -26 -109 -26 -126 0 -12 20 -35 50 -58 28 -21 50
-46 50 -55 0 -10 -21 -111 -46 -226 -36 -164 -45 -223 -42 -278 6 -124 69
-210 176 -241 192 -56 401 112 435 350 18 128 -30 262 -111 309 -46 27 -101
37 -145 28 -20 -5 -37 -6 -37 -1 0 4 11 58 25 120 31 138 31 155 3 174 -30 21
-326 24 -332 4z m280 -45 c-2 -10 -19 -85 -36 -168 -17 -82 -33 -155 -35 -162
-2 -6 16 -3 43 10 203 90 343 -114 235 -345 -58 -124 -149 -197 -256 -205 -74
-6 -107 7 -155 61 -34 39 -52 90 -52 150 0 31 97 509 116 569 5 15 -2 17 -61
17 l-66 0 7 38 c4 20 9 40 11 45 2 4 60 7 129 7 115 0 125 -2 120 -17z"/>
<path d="M775 1261 c-86 -40 -147 -139 -147 -241 0 -57 22 -120 43 -120 6 0 8
11 5 28 -17 76 37 214 113 290 28 28 51 54 51 57 0 10 -25 5 -65 -14z"/>
<path d="M840 1233 c-42 -35 -92 -113 -113 -177 -22 -64 -23 -164 -2 -172 46
-18 139 55 179 140 46 97 40 227 -10 234 -12 2 -36 -9 -54 -25z"/>
<path d="M459 300 c-15 -74 -14 -80 1 -80 12 0 19 16 28 64 15 81 15 96 -1 96
-9 0 -19 -29 -28 -80z"/>
<path d="M340 345 c-5 -13 -12 -47 -16 -75 l-7 -50 40 0 c53 0 77 19 71 55 -3
16 -1 36 5 46 16 25 -8 49 -49 49 -27 0 -36 -5 -44 -25z m60 -20 c0 -8 -7 -15
-15 -15 -8 0 -15 7 -15 15 0 8 7 15 15 15 8 0 15 -7 15 -15z m-2 -57 c-3 -7
-14 -14 -26 -16 -16 -3 -20 1 -16 12 7 19 48 22 42 4z"/>
<path d="M948 359 c-27 -15 -22 -56 7 -75 20 -13 23 -20 14 -30 -7 -8 -21 -11
-35 -8 -18 5 -24 2 -24 -10 0 -20 69 -23 88 -4 20 20 14 56 -13 74 -29 19 -24
34 11 34 15 0 24 6 24 15 0 17 -45 20 -72 4z"/>
<path d="M1050 345 c0 -8 -4 -15 -9 -15 -4 0 -8 -24 -7 -52 1 -43 4 -53 20
-56 10 -2 23 1 29 7 8 8 8 11 -1 11 -7 0 -12 13 -12 30 0 20 5 30 15 30 8 0
15 7 15 15 0 8 -4 15 -10 15 -5 0 -10 7 -10 15 0 8 -7 15 -15 15 -8 0 -15 -7
-15 -15z"/>
<path d="M514 294 c-23 -54 -12 -73 41 -72 l44 1 10 49 c6 27 11 50 11 52 0 2
-21 4 -46 4 -43 1 -46 -1 -60 -34z m66 -8 c0 -8 -8 -22 -17 -32 -17 -17 -18
-17 -21 0 -2 9 -1 24 2 32 7 18 36 18 36 0z"/>
<path d="M640 310 c-8 -15 -6 -24 10 -40 27 -27 25 -33 -5 -26 -19 5 -25 2
-25 -9 0 -13 9 -15 38 -13 30 2 38 7 40 27 2 15 -3 28 -12 33 -22 12 -20 28 4
28 11 0 20 5 20 10 0 19 -59 11 -70 -10z"/>
<path d="M735 306 c-9 -14 -15 -37 -13 -53 3 -25 7 -28 42 -28 22 0 41 5 43
10 2 6 -7 11 -19 10 -30 0 -35 19 -6 23 31 5 51 31 37 49 -19 22 -67 16 -84
-11z m55 -6 c0 -5 -7 -10 -16 -10 -8 0 -12 5 -9 10 3 6 10 10 16 10 5 0 9 -4
9 -10z"/>
<path d="M841 279 c-6 -29 -9 -54 -7 -57 12 -12 36 10 36 32 0 16 9 32 25 42
34 22 31 34 -9 34 -33 0 -35 -2 -45 -51z"/>
<path d="M1133 322 c-6 -4 -17 -20 -22 -35 -17 -43 1 -67 49 -67 38 0 38 0 49
50 6 28 11 53 11 55 0 8 -74 5 -87 -3z m47 -36 c0 -8 -8 -22 -17 -32 -17 -17
-18 -17 -21 0 -2 9 -1 24 2 32 7 18 36 18 36 0z"/>
<path d="M1246 321 c-2 -3 -7 -27 -11 -53 -6 -39 -5 -48 8 -48 9 0 17 14 22
36 4 24 13 38 26 41 31 9 23 32 -11 31 -17 -1 -32 -4 -34 -7z"/>
</g>
</svg>
