<?xml version="1.0" standalone="no"?>
<!DOCTYPE svg PUBLIC "-//W3C//DTD SVG 20010904//EN"
 "http://www.w3.org/TR/2001/REC-SVG-20010904/DTD/svg10.dtd">
<svg version="1.0" xmlns="http://www.w3.org/2000/svg"
 width="1040.000000pt" height="136.000000pt" viewBox="0 0 1040.000000 136.000000"
 preserveAspectRatio="xMidYMid meet">

<g transform="translate(0.000000,136.000000) scale(0.100000,-0.100000)"
fill="#000000" stroke="none">
<path d="M375 1263 c-55 -2 -103 -7 -108 -12 -7 -7 -220 -1062 -214 -1067 6
-6 307 -24 404 -24 144 0 354 25 461 56 145 40 265 107 353 194 128 127 191
263 193 420 1 82 -2 102 -24 145 -70 143 -255 232 -555 269 -133 16 -356 24
-510 19z m591 -208 c213 -132 91 -546 -205 -693 -69 -34 -82 -37 -161 -37 -79
0 -91 3 -136 30 -135 84 -145 297 -23 485 104 162 255 253 405 248 59 -3 79
-8 120 -33z"/>
<path d="M2170 1248 c-87 -12 -234 -62 -292 -100 -60 -38 -140 -124 -167 -181
-11 -24 -41 -135 -66 -248 -25 -112 -61 -275 -80 -361 -19 -86 -35 -162 -35
-167 0 -8 65 -11 198 -11 l197 0 38 232 c77 471 106 590 161 655 59 68 90 75
337 81 l216 5 11 43 c7 25 12 49 12 54 0 13 -440 11 -530 -2z"/>
<path d="M6428 1249 c-165 -24 -280 -74 -373 -161 -74 -69 -107 -130 -136
-251 -27 -114 -139 -637 -139 -648 0 -6 82 -8 198 -7 l197 3 18 100 c9 55 32
183 50 285 l33 185 149 5 149 5 23 40 c12 22 23 43 23 48 0 4 -73 7 -161 7
l-162 0 6 45 c15 104 92 212 165 229 15 4 123 10 240 13 l214 6 9 26 c6 14 13
38 16 54 l6 27 -234 -1 c-129 -1 -260 -5 -291 -10z"/>
<path d="M7298 1245 c-150 -25 -264 -75 -350 -154 -82 -75 -113 -142 -154
-333 -19 -90 -53 -244 -74 -344 -21 -99 -42 -193 -46 -207 l-6 -27 199 0 200
0 42 242 c24 134 48 265 55 291 l11 49 145 1 144 2 23 40 c12 22 23 43 23 48
0 4 -72 7 -161 7 l-161 0 7 43 c11 65 54 154 91 187 51 44 92 52 320 57 l211
5 15 49 c9 26 13 50 10 53 -11 12 -468 4 -544 -9z"/>
<path d="M8200 1040 c-240 -23 -445 -107 -546 -223 -20 -23 -53 -75 -72 -116
-30 -62 -36 -88 -40 -156 -5 -102 6 -140 63 -203 83 -93 215 -134 491 -153
251 -18 449 8 606 79 l65 29 6 49 c3 27 4 50 3 52 -2 1 -23 -5 -47 -14 -106
-39 -189 -55 -311 -61 -190 -9 -293 16 -377 93 -63 57 -84 104 -85 196 -1 42
1 78 4 81 3 3 163 10 355 16 193 6 396 14 453 17 l102 6 0 61 c0 128 -32 172
-148 207 -122 36 -368 55 -522 40z m161 -81 c65 -22 109 -88 95 -143 -6 -23
-6 -24 -231 -31 -125 -4 -229 -5 -232 -1 -12 12 51 87 101 120 88 58 192 80
267 55z"/>
<path d="M9635 1044 c-346 -27 -567 -140 -662 -340 -31 -64 -37 -91 -41 -159
-5 -101 6 -139 60 -200 82 -93 221 -138 485 -156 258 -18 457 8 619 81 61 27
61 28 67 76 3 27 3 51 1 53 -2 2 -21 -3 -41 -13 -78 -35 -188 -57 -315 -63
-190 -9 -293 16 -377 93 -64 57 -85 105 -85 196 -1 42 1 78 4 81 3 3 163 10
355 16 193 6 397 14 454 17 l103 6 -4 83 c-7 128 -37 159 -188 194 -75 18
-322 44 -375 39 -11 -1 -38 -3 -60 -4z m116 -85 c65 -22 109 -88 95 -143 -6
-23 -7 -23 -232 -31 -124 -4 -228 -4 -231 -1 -13 12 48 85 99 118 90 60 194
82 269 57z"/>
<path d="M3555 1034 c-112 -16 -230 -50 -321 -94 -83 -40 -111 -60 -161 -113
-66 -71 -104 -142 -122 -225 -24 -114 -9 -189 51 -257 79 -90 228 -136 499
-156 236 -17 436 8 585 72 70 30 84 45 84 94 l0 43 -59 -24 c-130 -52 -315
-79 -442 -63 -204 25 -319 142 -306 309 17 210 140 330 338 330 127 0 177 -45
165 -147 l-6 -53 142 0 c79 0 173 3 211 7 l67 6 0 51 c0 102 -57 154 -217 198
-65 17 -112 21 -278 23 -110 2 -213 1 -230 -1z"/>
<path d="M4875 1025 c-350 -57 -565 -252 -565 -513 0 -216 184 -316 610 -329
227 -7 333 4 464 48 116 39 190 84 260 160 79 85 126 187 133 289 5 72 3 84
-21 134 -46 94 -158 161 -328 197 -126 27 -425 35 -553 14z m402 -54 c186 -94
168 -385 -37 -592 -104 -106 -200 -153 -309 -154 -90 0 -141 22 -190 82 -42
51 -54 101 -49 205 4 78 8 96 47 174 116 234 373 370 538 285z"/>
<path d="M2377 459 c-72 -38 -97 -144 -49 -209 93 -125 292 -71 292 79 0 121
-129 190 -243 130z"/>
</g>
</svg>
