<?xml version="1.0" standalone="no"?>
<!DOCTYPE svg PUBLIC "-//W3C//DTD SVG 20010904//EN"
 "http://www.w3.org/TR/2001/REC-SVG-20010904/DTD/svg10.dtd">
<svg version="1.0" xmlns="http://www.w3.org/2000/svg"
 width="960.000000pt" height="268.000000pt" viewBox="0 0 960.000000 268.000000"
 preserveAspectRatio="xMidYMid meet">

<g transform="translate(0.000000,268.000000) scale(0.100000,-0.100000)"
fill="#000000" stroke="none">
<path d="M9382 2603 c-102 -50 -108 -195 -11 -261 28 -20 44 -23 89 -20 98 7
146 63 138 161 -3 42 -11 64 -29 83 -51 55 -122 69 -187 37z m147 -38 c110
-94 5 -264 -128 -205 -69 32 -92 113 -49 176 28 41 51 52 105 53 30 1 49 -6
72 -24z"/>
<path d="M9387 2543 c-4 -3 -7 -39 -7 -80 0 -67 2 -73 21 -73 16 0 20 5 17 27
-5 41 27 43 50 4 9 -17 25 -31 35 -31 18 0 18 2 -1 34 -18 30 -19 36 -6 47 17
14 18 51 2 67 -13 13 -100 17 -111 5z m88 -43 c0 -9 -11 -16 -27 -18 -23 -3
-28 1 -28 18 0 17 5 21 28 18 16 -2 27 -9 27 -18z"/>
<path d="M949 2584 c-434 -78 -808 -478 -909 -973 -113 -555 235 -1214 737
-1394 137 -50 209 -57 549 -57 l314 0 0 575 0 575 -250 0 -250 0 0 -331 0
-332 -77 7 c-144 12 -289 102 -389 241 -58 82 -117 209 -144 310 -88 337 118
762 425 877 56 21 81 23 370 28 l310 5 3 243 2 242 -307 -1 c-214 -1 -331 -5
-384 -15z"/>
<path d="M2371 2288 c-145 -621 -403 -1727 -441 -1888 -21 -91 -42 -182 -45
-202 l-7 -38 259 0 259 0 28 128 c15 70 41 180 58 245 l31 117 178 0 178 0 79
-242 79 -243 227 -3 c125 -1 226 2 226 6 0 5 -50 229 -111 498 -60 269 -130
577 -154 684 -78 346 -223 987 -264 1165 l-18 80 -245 3 -244 2 -73 -312z
m364 -973 c26 -88 48 -164 49 -169 1 -11 -96 -18 -140 -11 l-31 5 23 118 c43
212 46 224 49 220 2 -2 25 -75 50 -163z"/>
<path d="M4484 2589 c-75 -12 -210 -57 -279 -92 -309 -155 -543 -460 -642
-838 -24 -93 -27 -122 -28 -274 0 -156 2 -179 29 -280 121 -465 406 -794 791
-911 89 -27 92 -28 443 -32 l352 -4 0 576 0 576 -247 -2 -248 -3 -3 -327 -2
-328 -49 0 c-98 0 -230 57 -324 140 -130 115 -247 358 -264 546 -20 237 128
537 336 679 126 86 144 89 491 95 l305 5 3 243 2 242 -307 -1 c-170 -1 -331
-5 -359 -10z"/>
<path d="M6313 2585 c-186 -34 -360 -122 -510 -260 -123 -113 -213 -236 -293
-400 -147 -306 -168 -613 -64 -925 147 -439 455 -744 829 -821 77 -16 137 -19
413 -19 l322 0 -2 572 -3 573 -252 3 -253 2 0 -330 0 -330 -43 0 c-154 0 -326
105 -430 262 -142 215 -187 441 -132 653 23 86 106 250 164 321 63 79 168 156
256 191 70 27 72 27 380 33 l310 5 0 240 0 240 -310 2 c-218 1 -331 -3 -382
-12z"/>
<path d="M7250 1380 l0 -1220 245 0 245 0 0 1220 0 1220 -245 0 -245 0 0
-1220z"/>
<path d="M8535 2588 c-3 -7 -47 -197 -99 -423 -53 -225 -111 -477 -131 -560
-19 -82 -67 -287 -106 -455 -39 -168 -106 -457 -150 -643 -43 -186 -79 -340
-79 -343 0 -2 117 -4 260 -4 l260 0 5 23 c2 12 20 92 39 177 19 85 44 185 56
223 l21 67 176 -2 177 -3 80 -242 80 -243 228 0 c187 0 228 2 228 14 0 7 -25
123 -56 257 -31 134 -65 280 -74 324 -31 138 -279 1216 -299 1300 -11 44 -43
185 -72 313 l-53 232 -243 0 c-186 0 -245 -3 -248 -12z m299 -1282 c25 -87 44
-161 42 -165 -3 -4 -41 -8 -85 -9 -61 -2 -81 0 -81 10 0 38 64 338 70 331 4
-4 29 -79 54 -167z"/>
</g>
</svg>
