<?xml version="1.0" standalone="no"?>
<!DOCTYPE svg PUBLIC "-//W3C//DTD SVG 20010904//EN"
 "http://www.w3.org/TR/2001/REC-SVG-20010904/DTD/svg10.dtd">
<svg version="1.0" xmlns="http://www.w3.org/2000/svg"
 width="192.000000pt" height="76.000000pt" viewBox="0 0 192.000000 76.000000"
 preserveAspectRatio="xMidYMid meet">

<g transform="translate(0.000000,76.000000) scale(0.100000,-0.100000)"
fill="#000000" stroke="none">
<path d="M255 647 c-6 -36 -3 -66 10 -110 21 -72 85 -199 122 -242 18 -21 21
-22 9 -5 -48 73 -88 185 -107 300 -17 101 -25 114 -34 57z"/>
<path d="M155 581 c-3 -12 -3 -26 1 -33 17 -28 117 -158 121 -158 3 0 1 6 -5
13 -6 6 -31 53 -57 102 -26 50 -48 91 -50 93 -2 2 -6 -6 -10 -17z"/>
<path d="M570 526 c-6 -8 -10 -25 -8 -38 2 -19 5 -17 15 15 12 41 11 44 -7 23z"/>
<path d="M494 475 c-3 -8 -1 -27 4 -42 10 -27 10 -26 11 15 1 43 -5 54 -15 27z"/>
<path d="M120 438 c0 -20 10 -32 43 -50 66 -39 86 -43 51 -12 -16 14 -44 40
-61 57 l-33 31 0 -26z"/>
<path d="M440 428 c0 -9 7 -22 17 -29 15 -13 15 -12 3 11 -17 34 -20 36 -20
18z"/>
<path d="M787 353 c-4 -3 -7 -12 -7 -20 0 -15 26 -18 34 -4 7 11 -18 33 -27
24z"/>
<path d="M871 346 c-17 -10 -20 -15 -10 -18 11 -4 14 -30 16 -113 2 -118 5
-125 61 -125 68 0 105 77 70 147 -14 28 -47 36 -75 18 -12 -8 -24 -15 -25 -15
-2 0 -1 23 1 51 4 60 -5 72 -38 55z m103 -122 c38 -37 6 -131 -41 -122 -14 2
-19 14 -21 57 -2 29 -1 60 2 67 7 19 41 18 60 -2z"/>
<path d="M533 339 c14 -9 17 -26 17 -119 0 -93 -3 -110 -17 -119 -13 -8 8 -10
80 -11 96 0 98 0 107 26 13 34 12 54 -2 29 -17 -30 -28 -35 -80 -35 l-48 0 0
110 c0 93 3 110 18 119 13 8 4 10 -38 10 -42 0 -51 -2 -37 -10z"/>
<path d="M1675 340 c-8 -14 3 -30 21 -30 18 0 18 -9 -3 -32 -9 -10 -11 -18 -5
-18 6 0 19 11 27 24 13 19 14 29 5 45 -11 22 -35 28 -45 11z"/>
<path d="M1381 298 c-15 -29 -43 -44 -62 -33 -5 4 -19 -1 -30 -11 -17 -15 -19
-15 -19 -1 0 14 -5 14 -32 4 -23 -8 -28 -12 -15 -15 14 -3 17 -14 17 -66 0
-35 -5 -67 -12 -74 -9 -9 -2 -12 33 -12 35 1 40 3 27 11 -14 7 -18 23 -18 63
0 56 15 81 43 70 8 -3 18 -1 22 5 3 6 12 11 20 11 11 0 15 -19 17 -77 3 -70 5
-78 24 -81 11 -2 26 4 33 12 10 12 9 14 -8 9 -20 -5 -21 -1 -21 65 0 65 2 71
23 75 22 4 22 4 0 6 -17 1 -23 8 -25 34 l-4 32 -13 -27z"/>
<path d="M775 255 c-19 -9 -24 -14 -12 -14 14 -1 17 -11 17 -64 0 -36 -5 -68
-12 -75 -9 -9 -4 -12 26 -12 30 0 36 3 28 13 -6 7 -12 47 -14 89 l-3 76 -30
-13z"/>
<path d="M1083 246 c-23 -20 -28 -32 -28 -69 0 -57 25 -87 71 -87 23 0 38 7
53 27 12 14 19 29 15 32 -3 3 -10 -2 -15 -12 -23 -41 -99 -6 -99 45 0 15 9 18
60 18 66 0 73 8 35 45 -30 31 -56 32 -92 1z m65 -8 c21 -21 13 -28 -28 -28
-22 0 -40 4 -40 8 0 14 23 32 40 32 9 0 21 -5 28 -12z"/>
<path d="M1795 250 c-25 -27 -13 -61 29 -84 19 -10 37 -25 41 -34 15 -40 -52
-42 -72 -2 l-13 25 0 -32 c0 -29 3 -33 28 -34 43 -2 56 1 76 21 26 25 13 56
-34 80 -48 24 -57 38 -38 56 18 18 47 8 58 -20 8 -19 9 -18 9 9 1 27 -2 30
-33 32 -22 2 -39 -3 -51 -17z"/>
<path d="M1460 245 c6 -8 26 -45 45 -83 30 -64 32 -70 18 -96 -10 -19 -20 -26
-33 -23 -23 6 -45 -7 -36 -22 12 -18 41 -13 62 11 11 13 37 66 58 118 21 52
43 98 50 102 6 4 -1 8 -17 8 -17 0 -26 -4 -22 -10 7 -11 -24 -100 -34 -100 -4
0 -17 21 -30 47 -18 37 -20 48 -9 54 8 6 -1 9 -26 9 -32 0 -37 -2 -26 -15z"/>
<path d="M247 173 c-9 -2 -15 -9 -12 -14 9 -14 41 -11 55 6 10 12 9 15 -6 14
-11 -1 -27 -3 -37 -6z"/>
<path d="M306 131 c-17 -6 -17 -8 -3 -14 8 -3 21 1 27 9 13 15 6 17 -24 5z"/>
<path d="M365 110 c-3 -5 -2 -10 4 -10 5 0 13 5 16 10 3 6 2 10 -4 10 -5 0
-13 -4 -16 -10z"/>
</g>
</svg>
