<svg xmlns="http://www.w3.org/2000/svg" width="137" height="45" viewBox="0 0 137 45">
    <g fill="none" fill-rule="evenodd">
        <path fill="#FBD034" d="M8.009.525l36.236 7.762-7.698 36.474L.311 37 8.01.525"/>
        <path fill="#004A86" d="M8.01.516l36.236 7.759-.203.966H10.469v2.603l33.39-1.736-1.264 5.991H10.469v2.604l31.943-1.74-1.265 5.994H10.469v2.604l30.495-1.738-1.264 5.992H10.469v2.604l29.048-1.737-2.97 14.069L.31 36.991l.204-.965L34.63 34.33v-.866H1.055l.907-4.298 32.667-1.694v-.867H2.503l.905-4.293 31.22-1.698v-.866H3.95l.903-4.277 29.776-1.715v-.866H5.398L8.009.516M66.84 12.89v20.574h-3.535l-9.91-13.607v13.607h-4.039V12.89h3.641l9.814 13.472V12.89h4.03zm47.227 3.493h5.088V12.89h-14.162v3.493h5.09v17.081h3.984V16.383zm-11.637-2.838c-1.382-.764-2.954-1.2-4.554-1.2-5.99 0-10.084 5.157-10.084 10.996 0 5.675 4.256 10.669 10.003 10.669 1.653 0 3.144-.518 4.635-1.228v-4.775c-1.111 1.282-2.819 2.183-4.527 2.183-3.713 0-5.99-3.465-5.99-6.93 0-3.548 2.195-7.096 6.017-7.096 1.708 0 3.389.82 4.5 2.184v-4.803zm-18.01 2.838V12.89H71.914v20.574H84.42v-3.493h-8.524v-5.566h8.28v-3.492h-8.28v-4.53h8.524zm45.584 9.469h-4.852l2.25-7.477 2.602 7.477zm-11.873 7.612l7.763-20.574h3.498l7.551 20.574h-4.256l-1.572-4.338h-7.102l-1.68 4.338h-4.202z"/>
    </g>
</svg>
