<?xml version="1.0" standalone="no"?>
<!DOCTYPE svg PUBLIC "-//W3C//DTD SVG 20010904//EN"
 "http://www.w3.org/TR/2001/REC-SVG-20010904/DTD/svg10.dtd">
<svg version="1.0" xmlns="http://www.w3.org/2000/svg"
 width="620.000000pt" height="200.000000pt" viewBox="0 0 620.000000 200.000000"
 preserveAspectRatio="xMidYMid meet">

<g transform="translate(0.000000,200.000000) scale(0.100000,-0.100000)"
fill="#000000" stroke="none">
<path d="M780 1910 c0 -6 -30 -10 -70 -10 -40 0 -70 -4 -70 -10 0 -5 -13 -10
-30 -10 -16 0 -30 -4 -30 -10 0 -5 -8 -10 -18 -10 -10 0 -24 -9 -32 -20 -8
-11 -20 -20 -27 -20 -19 0 -123 -106 -123 -125 0 -8 -4 -15 -10 -15 -5 0 -10
-9 -10 -20 0 -11 -4 -20 -10 -20 -5 0 -10 -9 -10 -20 0 -11 -4 -20 -10 -20 -5
0 -10 -13 -10 -30 0 -16 -4 -30 -10 -30 -5 0 -10 -22 -10 -50 0 -27 -4 -50
-10 -50 -6 0 -10 -37 -10 -90 0 -53 4 -90 10 -90 6 0 10 -27 10 -60 0 -33 4
-60 10 -60 6 0 10 -18 10 -40 0 -22 5 -40 10 -40 6 0 10 27 10 60 0 33 4 60
10 60 6 0 10 27 10 60 0 33 4 60 10 60 6 0 10 9 10 20 0 11 5 20 10 20 6 0 10
9 10 20 0 11 5 20 10 20 6 0 10 7 10 15 0 19 84 105 103 105 7 0 19 9 27 20
10 14 26 20 52 20 21 0 38 5 38 10 0 6 37 10 90 10 53 0 90 -4 90 -10 0 -5 18
-10 40 -10 22 0 40 -4 40 -10 0 -5 14 -10 30 -10 17 0 30 -4 30 -10 0 -5 8
-10 18 -10 10 0 24 -9 32 -20 8 -11 20 -20 28 -20 7 0 48 -36 92 -80 l79 -80
56 0 c30 0 55 5 55 10 0 6 14 10 30 10 17 0 30 5 30 10 0 6 18 10 40 10 22 0
40 5 40 10 0 6 14 10 30 10 17 0 30 5 30 10 0 6 14 10 30 10 27 0 30 3 30 30
0 17 -4 30 -10 30 -5 0 -10 9 -10 20 0 11 -4 20 -10 20 -5 0 -10 8 -10 18 0
10 -9 24 -20 32 -11 8 -20 20 -20 27 0 17 -146 163 -163 163 -7 0 -19 9 -27
20 -8 11 -21 20 -30 20 -9 0 -22 9 -30 20 -8 11 -22 20 -32 20 -10 0 -18 5
-18 10 0 6 -9 10 -20 10 -11 0 -20 5 -20 10 0 6 -13 10 -30 10 -16 0 -30 5
-30 10 0 6 -9 10 -20 10 -11 0 -20 5 -20 10 0 6 -18 10 -40 10 -22 0 -40 5
-40 10 0 6 -30 10 -70 10 -40 0 -70 4 -70 10 0 6 -13 10 -30 10 -16 0 -30 -4
-30 -10z"/>
<path d="M700 1390 c0 -5 -9 -10 -20 -10 -11 0 -20 -4 -20 -10 0 -5 -9 -10
-20 -10 -16 0 -20 -7 -20 -35 0 -31 12 -47 105 -140 58 -58 110 -105 116 -105
6 0 28 -18 49 -40 21 -22 43 -40 49 -40 16 0 121 -107 121 -123 0 -7 9 -19 20
-27 11 -8 20 -22 20 -32 0 -10 5 -18 10 -18 6 0 10 -9 10 -20 0 -11 5 -20 10
-20 6 0 10 -9 10 -20 0 -11 5 -20 10 -20 6 0 10 -9 10 -20 0 -11 3 -20 6 -20
14 0 34 31 34 54 0 14 5 26 10 26 6 0 10 43 10 110 0 67 -4 110 -10 110 -5 0
-10 18 -10 40 0 22 -4 40 -10 40 -5 0 -10 9 -10 20 0 11 -4 20 -10 20 -5 0
-10 9 -10 20 0 11 -4 20 -10 20 -5 0 -10 7 -10 15 0 20 -145 165 -165 165 -8
0 -15 5 -15 10 0 6 -9 10 -20 10 -11 0 -20 5 -20 10 0 6 -9 10 -20 10 -11 0
-20 5 -20 10 0 6 -9 10 -20 10 -11 0 -20 5 -20 10 0 6 -30 10 -70 10 -40 0
-70 -4 -70 -10z"/>
<path d="M1880 1370 c0 -5 -18 -10 -40 -10 -22 0 -40 -4 -40 -10 0 -5 -9 -10
-20 -10 -13 0 -20 -7 -20 -20 0 -11 -4 -20 -10 -20 -5 0 -10 -22 -10 -50 0
-27 -4 -50 -10 -50 -5 0 -10 -13 -10 -30 0 -16 5 -30 10 -30 6 0 10 -28 10
-65 0 -62 2 -68 35 -100 21 -22 44 -35 60 -35 14 0 25 -4 25 -10 0 -6 77 -10
210 -10 133 0 210 -4 210 -10 0 -5 9 -10 20 -10 18 0 20 -7 20 -56 0 -35 -5
-61 -14 -70 -12 -11 -62 -14 -270 -14 -164 0 -256 -4 -256 -10 0 -5 -9 -10
-20 -10 -13 0 -20 -7 -20 -20 0 -11 -4 -20 -10 -20 -15 0 -12 -70 4 -86 12
-11 67 -14 310 -14 191 0 296 4 296 10 0 6 16 10 35 10 38 0 85 36 85 65 0 8
5 15 10 15 6 0 10 14 10 30 0 17 5 30 10 30 6 0 10 37 10 90 0 53 -4 90 -10
90 -5 0 -10 14 -10 30 0 17 -4 30 -10 30 -5 0 -10 9 -10 20 0 13 -7 20 -20 20
-11 0 -20 5 -20 10 0 6 -53 10 -140 10 -87 0 -140 4 -140 10 0 6 -45 10 -116
10 -132 0 -144 6 -144 70 0 70 1 70 254 70 144 0 226 4 226 10 0 6 30 10 70
10 l70 0 0 70 0 70 -310 0 c-200 0 -310 -4 -310 -10z"/>
<path d="M2580 1310 l0 -70 60 0 c33 0 60 -4 60 -10 0 -6 79 -10 216 -10 242
0 244 0 244 -70 0 -71 5 -70 -304 -70 l-276 0 0 -226 c0 -253 0 -254 70 -254
67 0 70 9 70 174 l0 146 230 0 c147 0 230 4 230 10 0 6 16 10 35 10 43 0 85
37 85 75 0 14 5 25 10 25 6 0 10 40 10 100 0 60 -4 100 -10 100 -5 0 -10 21
-10 46 0 58 -16 74 -74 74 -25 0 -46 5 -46 10 0 6 -107 10 -300 10 l-300 0 0
-70z"/>
<path d="M3380 990 l0 -390 80 0 80 0 0 390 0 390 -80 0 -80 0 0 -390z"/>
<path d="M3640 990 l0 -390 290 0 c187 0 290 4 290 10 0 6 14 10 30 10 17 0
30 5 30 10 0 6 9 10 20 10 13 0 20 7 20 18 0 10 9 24 20 32 12 8 20 26 20 42
0 15 5 28 10 28 6 0 10 27 10 60 0 33 4 60 10 60 6 0 10 53 10 140 0 87 -4
140 -10 140 -5 0 -10 23 -10 50 0 28 -4 50 -10 50 -5 0 -10 7 -10 15 0 9 -16
31 -35 50 -26 27 -43 35 -70 35 -19 0 -35 5 -35 10 0 6 -103 10 -290 10 l-290
0 0 -390z m180 240 c0 -6 69 -10 186 -10 147 0 188 -3 200 -14 11 -12 14 -55
14 -220 l0 -206 -30 0 c-16 0 -30 -4 -30 -10 0 -6 -70 -10 -190 -10 l-190 0 0
225 c0 167 3 230 13 240 14 17 27 19 27 5z"/>
<path d="M4620 1370 c0 -5 -13 -10 -30 -10 -16 0 -30 -4 -30 -10 0 -5 -7 -10
-16 -10 -23 0 -44 -25 -44 -54 0 -14 -4 -26 -10 -26 -6 0 -10 -100 -10 -280 0
-180 4 -280 10 -280 6 0 10 -7 10 -16 0 -20 24 -44 44 -44 9 0 16 -4 16 -10 0
-6 40 -10 100 -10 60 0 100 -4 100 -10 0 -6 90 -10 250 -10 l250 0 0 56 c0 57
-14 84 -44 84 -9 0 -16 5 -16 10 0 6 -95 10 -266 10 -217 0 -268 3 -280 14 -9
9 -14 35 -14 70 0 56 0 56 30 56 17 0 30 5 30 10 0 6 92 10 255 10 l256 0 24
25 c16 15 25 36 25 55 0 56 -13 60 -174 60 -91 0 -146 4 -146 10 0 6 -57 10
-150 10 l-150 0 0 56 c0 35 5 61 14 70 12 11 58 14 240 14 144 0 226 4 226 10
0 6 25 10 56 10 71 0 84 13 84 84 l0 56 -320 0 c-207 0 -320 -4 -320 -10z"/>
<path d="M5460 1370 c0 -5 -21 -10 -46 -10 -60 0 -74 -15 -74 -84 0 -31 -4
-56 -10 -56 -6 0 -10 -110 -10 -310 l0 -310 56 0 c66 0 84 14 84 64 0 20 5 36
10 36 6 0 10 89 10 246 0 273 0 274 64 274 29 0 36 -4 36 -20 0 -11 5 -20 10
-20 6 0 10 -57 10 -150 0 -93 4 -150 10 -150 6 0 10 -50 10 -130 l0 -130 40 0
c22 0 40 -4 40 -10 0 -5 18 -10 40 -10 l40 0 0 270 c0 173 4 270 10 270 6 0
10 18 10 40 l0 40 50 0 50 0 0 -40 c0 -22 5 -40 10 -40 6 0 10 -97 10 -270 l0
-270 90 0 90 0 0 290 c0 187 -4 290 -10 290 -5 0 -10 23 -10 50 0 28 -4 50
-10 50 -5 0 -10 7 -10 16 0 20 -24 44 -44 44 -9 0 -16 5 -16 10 0 6 -13 10
-30 10 -16 0 -30 5 -30 10 0 6 -87 10 -240 10 -153 0 -240 -4 -240 -10z"/>
<path d="M500 1080 c0 -73 4 -120 10 -120 6 0 10 -13 10 -30 0 -16 5 -30 10
-30 6 0 10 -9 10 -20 0 -11 5 -20 10 -20 6 0 10 -9 10 -20 0 -11 5 -20 10 -20
6 0 10 -7 10 -15 0 -19 144 -165 163 -165 7 0 19 -9 27 -20 8 -12 26 -20 42
-20 15 0 28 -4 28 -10 0 -16 149 -13 166 4 16 17 20 146 4 146 -5 0 -10 7 -10
15 0 18 -144 165 -161 165 -6 0 -24 14 -39 30 -15 17 -33 30 -40 30 -7 0 -25
14 -40 30 -15 17 -34 30 -42 30 -7 0 -20 9 -28 20 -8 11 -22 20 -32 20 -11 0
-18 7 -18 18 0 10 -9 24 -20 32 -11 8 -20 20 -20 28 0 18 -25 42 -44 42 -14 0
-16 -18 -16 -120z"/>
<path d="M1360 830 c0 -67 -4 -110 -10 -110 -5 0 -10 -13 -10 -30 0 -16 -4
-30 -10 -30 -5 0 -10 -7 -10 -15 0 -20 -125 -145 -145 -145 -8 0 -15 -4 -15
-10 0 -5 -13 -10 -30 -10 -16 0 -30 -4 -30 -10 0 -6 -53 -10 -140 -10 -87 0
-140 4 -140 10 0 6 -13 10 -30 10 -16 0 -30 5 -30 10 0 6 -9 10 -20 10 -11 0
-20 5 -20 10 0 6 -8 10 -18 10 -10 0 -24 9 -32 20 -8 11 -20 20 -27 20 -16 0
-123 105 -123 120 0 24 -30 40 -74 40 -25 0 -46 -4 -46 -10 0 -5 -13 -10 -30
-10 -16 0 -30 -4 -30 -10 0 -5 -13 -10 -30 -10 -16 0 -30 -4 -30 -10 0 -5 -13
-10 -30 -10 -16 0 -30 -4 -30 -10 0 -5 -18 -10 -40 -10 -22 0 -40 -4 -40 -10
0 -5 -9 -10 -20 -10 -11 0 -20 -4 -20 -8 0 -4 9 -14 20 -22 11 -8 20 -21 20
-30 0 -9 9 -22 20 -30 11 -8 20 -21 20 -30 0 -9 9 -22 20 -30 11 -8 20 -20 20
-27 0 -17 186 -203 203 -203 7 0 19 -9 27 -20 8 -11 22 -20 32 -20 10 0 18 -4
18 -10 0 -5 9 -10 20 -10 11 0 20 -4 20 -10 0 -5 14 -10 30 -10 17 0 30 -4 30
-10 0 -5 9 -10 20 -10 11 0 20 -4 20 -10 0 -5 18 -10 40 -10 22 0 40 -4 40
-10 0 -6 27 -10 60 -10 33 0 60 -4 60 -10 0 -5 18 -10 40 -10 22 0 40 5 40 10
0 6 27 10 60 10 33 0 60 4 60 10 0 6 14 10 30 10 17 0 30 5 30 10 0 6 14 10
30 10 17 0 30 5 30 10 0 6 7 10 16 10 8 0 33 18 54 40 21 22 46 40 54 40 9 0
16 7 16 16 0 9 14 29 30 44 17 15 30 35 30 44 0 9 5 16 10 16 6 0 10 14 10 30
0 17 5 30 10 30 6 0 10 23 10 50 0 28 5 50 10 50 6 0 10 57 10 150 0 93 -4
150 -10 150 -5 0 -10 21 -10 46 0 40 -16 74 -34 74 -3 0 -6 -49 -6 -110z"/>
</g>
</svg>
