<?xml version="1.0" encoding="utf-8"?>
<!-- Generator: Adobe Illustrator 19.0.1, SVG Export Plug-In . SVG Version: 6.00 Build 0)  -->
<svg version="1.1" id="Layer_1" xmlns="http://www.w3.org/2000/svg" xmlns:xlink="http://www.w3.org/1999/xlink" x="0px" y="0px"
	 viewBox="206 296 200 200" style="enable-background:new 206 296 200 200;" xml:space="preserve">
<style type="text/css">
	.st0{fill:#4D2113;}
	.st1{fill:none;stroke:#1DD80E;stroke-width:3;stroke-linecap:round;stroke-miterlimit:10;}
</style>
<g>
	<g>
		<g>
			<g>
				<path class="st0" d="M354,426.2c-10.5,0-17.9-12.3-17.9-23.4c0-3.7,0-7.3,1.8-10.5l0.2-0.5h31.7l0.2,0.5c1.8,3.2,1.8,7,1.8,10.5
					C371.9,413.9,364.6,426.2,354,426.2z M339.4,393.6c-1.3,2.7-1.3,5.8-1.3,9.1c0,10.2,6.5,21.6,16,21.6c9.3,0,16-11.4,16-21.6
					c0-3.3,0-6.5-1.3-9.1H339.4z"/>
			</g>
			<g>
				<g>
					<path class="st0" d="M339.9,408.3c2.1,7.3,7.3,13.8,14.1,13.8s12.1-6.4,14.1-13.8H339.9z"/>
				</g>
			</g>
		</g>
		<g>
			<path class="st0" d="M368.1,426.4h-28.3c-0.2,0-0.5-0.2-0.5-0.5c0-0.2,0.2-0.5,0.5-0.5h28.3c0.2,0,0.5,0.2,0.5,0.5
				C368.7,426.2,368.5,426.4,368.1,426.4z"/>
		</g>
	</g>
	<g>
		<rect x="349.1" y="389.6" class="st0" width="8.2" height="3.1"/>
	</g>
	<g>
		<path class="st0" d="M352.7,391.3l-1.2-0.5c0.5-1.2,1-2.3,1.4-3.1c1.7-3.3,2.6-5.3-3.3-12.7l1.1-0.8c6.3,7.6,5.5,10.2,3.5,14.1
			C353.6,389.2,353.1,390.1,352.7,391.3z"/>
	</g>
	<g>
		<polygon class="st0" points="348.5,377.7 346.2,380.2 348,377.4 		"/>
		<polygon class="st0" points="346.5,380.5 346,380.1 347.9,376.9 348.9,377.7 		"/>
	</g>
	<g>
		<polygon class="st0" points="348.1,373.9 344.8,372.8 347.9,374.4 		"/>
		<polygon class="st0" points="348.1,374.9 344.7,373 344.9,372.4 348.6,373.6 		"/>
	</g>
	<g>
		<polygon class="st0" points="351.3,365.7 350.1,372.4 350.7,372.6 		"/>
		<polygon class="st0" points="351,372.9 349.8,372.8 351,365.6 351.7,365.7 		"/>
	</g>
	<g>
		<polygon class="st0" points="351.8,373.5 358.8,369.8 351.5,372.9 		"/>
		<polygon class="st0" points="351.7,374 351.1,372.8 358.7,369.6 358.9,370.2 		"/>
	</g>
	<g>
		<path class="st0" d="M349.4,375.7"/>
	</g>
</g>
<path class="st1" d="M371.4,401.6c3.9-9.6,16.1-7.6,14.6,2.9c-1.4,9.8-14.2,4.8-18.6,11.6"/>
</svg>
