<?xml version="1.0" encoding="utf-8"?>
<!-- Generator: Adobe Illustrator 19.0.1, SVG Export Plug-In . SVG Version: 6.00 Build 0)  -->
<svg version="1.1" id="Layer_1" xmlns="http://www.w3.org/2000/svg" xmlns:xlink="http://www.w3.org/1999/xlink" x="0px" y="0px"
	 viewBox="0 0 612 792" style="enable-background:new 0 0 612 792;" xml:space="preserve">
<style type="text/css">
	.st0{fill:#4D2113;}
	.st1{fill:#FFFFFF;}
	.st2{fill:#FFFFFF;stroke:#FFFFFF;stroke-miterlimit:10;}
</style>
<circle class="st0" cx="297.1" cy="375.7" r="150"/>
<g>
	<g>
		<g>
			<g>
				<path class="st1" d="M289.8,486.5c-43.1,0-73.1-50.3-73.1-95.8c0-15,0-30,7.3-43.1l1-1.9h129.7l1,1.9
					c7.3,13.1,7.3,28.5,7.3,43.1C362.9,436.2,332.9,486.5,289.8,486.5z M229.8,353.4c-5.3,11.1-5.3,23.7-5.3,37.3
					c0,41.6,26.6,88.1,65.3,88.1c38.2,0,65.3-46.5,65.3-88.1c0-13.5,0-26.6-5.3-37.3H229.8z"/>
			</g>
			<g>
				<g>
					<path class="st1" d="M232.3,413.4c8.7,30,30,56.1,57.6,56.1c27.6,0,49.4-26.1,57.6-56.1H232.3z"/>
				</g>
			</g>
		</g>
		<g>
			<path class="st1" d="M347.4,487.5H231.8c-1,0-1.9-1-1.9-1.9c0-1,1-1.9,1.9-1.9h115.6c1,0,1.9,1,1.9,1.9
				C349.8,486.5,348.9,487.5,347.4,487.5z"/>
		</g>
		<g>
			<path class="st1" d="M345.5,448.8c-1,0-1.5,0-2.4-0.5c-1.9-1.5-2.4-3.9-1-5.3c7.7-11.6,21.8-16,34.8-18.4l2.9-0.5
				c10.6-1.9,21.8-4.4,29.5-11.1c8.2-7.3,11.1-20.3,6.8-30c-4.4-10.2-15.5-16.9-26.1-16.5c-11.1,0.5-21.3,8.7-24.2,19.4
				c-0.5,1.9-2.9,3.4-4.8,2.9c-1.9-0.5-3.4-2.9-2.9-4.8c3.9-13.5,17.4-24.2,31.5-25.2s28.5,8.2,33.9,21.3
				c5.3,13.1,1.9,29.5-8.7,39.2c-9.2,8.2-21.8,11.1-33.4,13.1l-2.9,0.5c-11.1,2.4-23.2,5.8-29.5,15
				C347.9,448.3,346.9,448.8,345.5,448.8z"/>
		</g>
	</g>
	<g>
		<rect x="269.5" y="337" class="st1" width="33.4" height="12.6"/>
	</g>
	<g>
		<path class="st1" d="M284.5,343.8l-4.8-1.9c1.9-4.8,3.9-9.2,5.8-12.6c6.8-13.5,10.6-21.8-13.5-51.8l4.4-3.4
			c25.6,31,22.3,41.6,14.5,57.6C287.9,335.5,286,338.9,284.5,343.8z"/>
	</g>
	<g>
		<polygon class="st1" points="267.1,288.6 257.9,298.8 265.2,287.2 		"/>
		<polygon class="st1" points="258.9,299.7 256.9,298.3 264.7,285.2 269,288.6 		"/>
	</g>
	<g>
		<polygon class="st1" points="265.6,272.6 252.1,268.3 264.7,275.1 		"/>
		<polygon class="st1" points="265.6,277 251.6,269.2 252.6,266.8 267.6,271.7 		"/>
	</g>
	<g>
		<polygon class="st1" points="278.7,239.2 273.9,266.8 276.3,267.3 		"/>
		<polygon class="st1" points="277.3,268.8 272.4,268.3 277.3,238.8 280.2,239.2 		"/>
	</g>
	<g>
		<polygon class="st1" points="280.6,271.2 309.2,256.2 279.7,268.8 		"/>
		<polygon class="st1" points="280.2,273.1 277.7,268.3 308.7,255.2 309.7,257.6 		"/>
	</g>
	<g>
		<path class="st2" d="M271,280.4"/>
	</g>
</g>
</svg>
